<svg width="192" height="63" viewBox="0 0 192 63" fill="none" xmlns="http://www.w3.org/2000/svg">
<mask id="mask0_7_67" style="mask-type:alpha" maskUnits="userSpaceOnUse" x="3" y="1" width="179" height="60">
<path d="M35.9851 20.2234C35.8361 18.3605 35.1375 16.9074 33.8893 15.8641C32.6598 14.8209 30.7875 14.2993 28.2726 14.2993C26.6704 14.2993 25.3571 14.4949 24.3325 14.8861C23.3265 15.2587 22.5813 15.771 22.0969 16.423C21.6126 17.0751 21.3611 17.8202 21.3424 18.6585C21.3052 19.3478 21.4263 19.9719 21.7057 20.5308C22.0038 21.071 22.4695 21.5647 23.1029 22.0118C23.7363 22.4403 24.5467 22.8315 25.534 23.1855C26.5214 23.5394 27.6951 23.8561 29.055 24.1356L33.7496 25.1416C36.9166 25.8122 39.6271 26.6971 41.8813 27.7962C44.1354 28.8954 45.9797 30.1901 47.4142 31.6805C48.8487 33.1522 49.9012 34.8102 50.5719 36.6545C51.2612 38.4988 51.6151 40.5108 51.6338 42.6904C51.6151 46.4535 50.6743 49.6391 48.8114 52.2473C46.9485 54.8554 44.2845 56.8394 40.8194 58.1993C37.373 59.5593 33.228 60.2392 28.3843 60.2392C23.4103 60.2392 19.0697 59.5034 15.3624 58.0317C11.6738 56.5599 8.80489 54.2965 6.75567 51.2413C4.72507 48.1674 3.70045 44.2366 3.68182 39.4489H18.4363C18.5294 41.2001 18.9672 42.6718 19.7496 43.864C20.5321 45.0563 21.6312 45.9598 23.047 46.5746C24.4815 47.1894 26.1861 47.4968 28.1608 47.4968C29.8188 47.4968 31.2067 47.2918 32.3244 46.882C33.4422 46.4722 34.2898 45.904 34.8673 45.1774C35.4449 44.4509 35.7429 43.6219 35.7616 42.6904C35.7429 41.8148 35.4542 41.051 34.8953 40.399C34.355 39.7283 33.4608 39.1322 32.2127 38.6106C30.9645 38.0703 29.2785 37.5673 27.1548 37.1016L21.4542 35.8721C16.387 34.7729 12.391 32.9379 9.46624 30.3671C6.56006 27.7776 5.11628 24.2473 5.13491 19.7763C5.11628 16.1436 6.08501 12.9673 8.04109 10.2474C10.0158 7.50888 12.745 5.37582 16.2287 3.84822C19.731 2.32061 23.7456 1.55681 28.2726 1.55681C32.8926 1.55681 36.8886 2.32993 40.2605 3.87616C43.6325 5.4224 46.2312 7.60203 48.0569 10.4151C49.9012 13.2095 50.8327 16.4789 50.8513 20.2234H35.9851Z" fill="black"/>
<path d="M52.8225 59.5686V2.33924H77.525C81.7725 2.33924 85.489 3.17756 88.6747 4.8542C91.8603 6.53084 94.338 8.88746 96.1078 11.924C97.8776 14.9606 98.7625 18.5095 98.7625 22.5707C98.7625 26.6692 97.8496 30.2181 96.0239 33.2174C94.2169 36.2167 91.674 38.5267 88.3952 40.1475C85.1351 41.7682 81.3254 42.5786 76.9661 42.5786H62.2117V30.5068H73.8364C75.6621 30.5068 77.2176 30.1901 78.503 29.5567C79.8071 28.9047 80.8038 27.9825 81.4931 26.7903C82.201 25.598 82.5549 24.1915 82.5549 22.5707C82.5549 20.9313 82.201 19.5341 81.4931 18.3791C80.8038 17.2055 79.8071 16.3112 78.503 15.6965C77.2176 15.0631 75.6621 14.7464 73.8364 14.7464H68.3594V59.5686H52.8225Z" fill="black"/>
<path d="M99.7416 59.5686V2.33924H115.278V47.0497H138.416V59.5686H99.7416Z" fill="black"/>
<path d="M131.571 14.8582V2.33924H181.311V14.8582H164.098V59.5686H148.784V14.8582H131.571Z" fill="black"/>
</mask>
<g mask="url(#mask0_7_67)">
<path d="M1.73807 58.9561L189.248 -0.0173721V-1.71309L-1.18265 -7.93074L1.73807 58.9561Z" fill="white" stroke="white"/>
</g>
<mask id="mask1_7_67" style="mask-type:alpha" maskUnits="userSpaceOnUse" x="10" y="3" width="178" height="59">
<path d="M42.6738 21.7972C42.5248 19.9343 41.8262 18.4812 40.578 17.438C39.3485 16.3947 37.4762 15.8731 34.9612 15.8731C33.3591 15.8731 32.0458 16.0687 31.0211 16.4599C30.0152 16.8325 29.27 17.3448 28.7856 17.9968C28.3013 18.6489 28.0498 19.394 28.0311 20.2324C27.9939 20.9217 28.115 21.5457 28.3944 22.1046C28.6925 22.6449 29.1582 23.1385 29.7916 23.5856C30.425 24.0141 31.2354 24.4053 32.2227 24.7593C33.2101 25.1133 34.3837 25.43 35.7437 25.7094L40.4383 26.7154C43.6053 27.386 46.3158 28.2709 48.57 29.3701C50.8241 30.4692 52.6684 31.7639 54.1029 33.2543C55.5374 34.726 56.5899 36.384 57.2606 38.2283C57.9499 40.0726 58.3038 42.0846 58.3224 44.2642C58.3038 48.0273 57.363 51.213 55.5001 53.8211C53.6372 56.4292 50.9732 58.4132 47.5081 59.7731C44.0617 61.1331 39.9167 61.8131 35.073 61.8131C30.099 61.8131 25.7584 61.0772 22.0511 59.6055C18.3625 58.1338 15.4936 55.8703 13.4444 52.8151C11.4138 49.7412 10.3891 45.8105 10.3705 41.0227H25.125C25.2181 42.7739 25.6559 44.2456 26.4383 45.4379C27.2208 46.6301 28.3199 47.5337 29.7357 48.1484C31.1702 48.7632 32.8748 49.0706 34.8495 49.0706C36.5075 49.0706 37.8954 48.8657 39.0131 48.4558C40.1309 48.046 40.9785 47.4778 41.556 46.7512C42.1335 46.0247 42.4316 45.1957 42.4502 44.2642C42.4316 43.3886 42.1429 42.6248 41.584 41.9728C41.0437 41.3022 40.1495 40.706 38.9014 40.1844C37.6532 39.6441 35.9672 39.1412 33.8435 38.6754L28.1429 37.4459C23.0757 36.3467 19.0797 34.5118 16.1549 31.9409C13.2487 29.3514 11.805 25.8212 11.8236 21.3501C11.805 17.7174 12.7737 14.5411 14.7298 11.8212C16.7045 9.08271 19.4337 6.94965 22.9174 5.42204C26.4197 3.89443 30.4343 3.13063 34.9612 3.13063C39.5813 3.13063 43.5773 3.90375 46.9492 5.44998C50.3211 6.99622 52.9199 9.17585 54.7456 11.9889C56.5899 14.7833 57.5214 18.0527 57.54 21.7972H42.6738Z" fill="black"/>
<path d="M59.5112 61.1424V3.91306H84.2137C88.4612 3.91306 92.1777 4.75138 95.3634 6.42803C98.549 8.10467 101.027 10.4613 102.796 13.4979C104.566 16.5344 105.451 20.0833 105.451 24.1445C105.451 28.243 104.538 31.7919 102.713 34.7912C100.906 37.7905 98.3627 40.1006 95.0839 41.7213C91.8238 43.3421 88.0141 44.1524 83.6548 44.1524H68.9004V32.0806H80.5251C82.3508 32.0806 83.9063 31.7639 85.1917 31.1305C86.4958 30.4785 87.4925 29.5564 88.1817 28.3641C88.8897 27.1718 89.2436 25.7653 89.2436 24.1445C89.2436 22.5051 88.8897 21.1079 88.1817 19.9529C87.4925 18.7793 86.4958 17.8851 85.1917 17.2703C83.9063 16.6369 82.3508 16.3202 80.5251 16.3202H75.0481V61.1424H59.5112Z" fill="black"/>
<path d="M106.43 61.1424V3.91306H121.967V48.6235H145.105V61.1424H106.43Z" fill="black"/>
<path d="M138.26 16.432V3.91306H188V16.432H170.787V61.1424H155.473V16.432H138.26Z" fill="black"/>
</mask>
<g mask="url(#mask1_7_67)">
<path d="M195.302 -1.16932L9.31888 62.4552L9.36111 64.1504L199.888 65.624L195.302 -1.16932Z" fill="white" stroke="white"/>
</g>
</svg>
