<svg width="475" height="153" viewBox="0 0 475 153" fill="none" xmlns="http://www.w3.org/2000/svg">
<g clip-path="url(#clip0_1_19)">
<mask id="mask0_1_19" style="mask-type:alpha" maskUnits="userSpaceOnUse" x="3" y="1" width="453" height="150">
<path d="M85.7841 49C85.4053 44.2652 83.6297 40.572 80.4574 37.9205C77.3324 35.2689 72.5739 33.9432 66.1818 33.9432C62.1098 33.9432 58.7718 34.4403 56.1676 35.4347C53.6108 36.3816 51.7169 37.6837 50.4858 39.3409C49.2547 40.9981 48.6155 42.892 48.5682 45.0227C48.4735 46.7746 48.7813 48.3608 49.4915 49.7812C50.2491 51.1544 51.4328 52.4091 53.0426 53.5455C54.6525 54.6345 56.7121 55.6288 59.2216 56.5284C61.7311 57.428 64.714 58.233 68.1705 58.9432L80.1023 61.5C88.1515 63.2045 95.0407 65.4536 100.77 68.2472C106.499 71.0407 111.187 74.3314 114.832 78.1193C118.478 81.8598 121.153 86.0739 122.858 90.7614C124.61 95.4489 125.509 100.562 125.557 106.102C125.509 115.667 123.118 123.763 118.384 130.392C113.649 137.021 106.878 142.063 98.071 145.52C89.3116 148.976 78.7765 150.705 66.4659 150.705C53.8239 150.705 42.7917 148.834 33.3693 145.094C23.9943 141.353 16.7027 135.6 11.4943 127.835C6.33333 120.023 3.72917 110.032 3.68182 97.8636H41.1818C41.4186 102.314 42.5313 106.055 44.5199 109.085C46.5085 112.116 49.3021 114.412 52.9006 115.974C56.5464 117.537 60.8788 118.318 65.8977 118.318C70.1117 118.318 73.6392 117.797 76.4801 116.756C79.321 115.714 81.4754 114.27 82.9432 112.423C84.411 110.577 85.1686 108.47 85.2159 106.102C85.1686 103.877 84.4347 101.936 83.0142 100.278C81.6411 98.5739 79.3684 97.0587 76.196 95.733C73.0237 94.3598 68.7386 93.0814 63.3409 91.8977L48.8523 88.7727C35.9735 85.9792 25.8172 81.3153 18.3835 74.7812C10.9972 68.1998 7.32765 59.2273 7.375 47.8636C7.32765 38.6307 9.78977 30.5578 14.7614 23.6449C19.7803 16.6847 26.7169 11.2633 35.571 7.38068C44.4725 3.4981 54.6761 1.55681 66.1818 1.55681C77.9242 1.55681 88.0805 3.52178 96.6506 7.4517C105.221 11.3816 111.826 16.9214 116.466 24.071C121.153 31.1733 123.521 39.483 123.568 49H85.7841ZM128.578 149V3.54545H191.362C202.158 3.54545 211.604 5.67613 219.7 9.9375C227.797 14.1989 234.094 20.1884 238.592 27.9062C243.09 35.6241 245.339 44.6439 245.339 54.9659C245.339 65.3826 243.019 74.4025 238.379 82.0256C233.786 89.6487 227.323 95.5199 218.99 99.6392C210.704 103.759 201.021 105.818 189.942 105.818H152.442V75.1364H181.987C186.627 75.1364 190.581 74.3314 193.848 72.7216C197.162 71.0644 199.696 68.7206 201.447 65.6903C203.247 62.66 204.146 59.0852 204.146 54.9659C204.146 50.7992 203.247 47.2481 201.447 44.3125C199.696 41.3295 197.162 39.0568 193.848 37.4943C190.581 35.8845 186.627 35.0795 181.987 35.0795H168.067V149H128.578ZM247.828 149V3.54545H287.317V117.182H346.124V149H247.828ZM328.726 35.3636V3.54545H455.146V35.3636H411.396V149H372.476V35.3636H328.726Z" fill="black"/>
</mask>
<g mask="url(#mask0_1_19)">
<path d="M-1.25851 147.443L475.318 -2.44414V-6.754L-8.68182 -22.5568L-1.25851 147.443Z" fill="black" stroke="black"/>
</g>
<mask id="mask1_1_19" style="mask-type:alpha" maskUnits="userSpaceOnUse" x="20" y="5" width="453" height="150">
<path d="M102.784 53C102.405 48.2652 100.63 44.572 97.4574 41.9205C94.3324 39.2689 89.5739 37.9432 83.1818 37.9432C79.1098 37.9432 75.7718 38.4403 73.1676 39.4347C70.6108 40.3816 68.7169 41.6837 67.4858 43.3409C66.2547 44.9981 65.6155 46.892 65.5682 49.0227C65.4735 50.7746 65.7813 52.3608 66.4915 53.7812C67.2491 55.1544 68.4328 56.4091 70.0426 57.5455C71.6525 58.6345 73.7121 59.6288 76.2216 60.5284C78.7311 61.428 81.714 62.233 85.1705 62.9432L97.1023 65.5C105.152 67.2045 112.041 69.4536 117.77 72.2472C123.499 75.0407 128.187 78.3314 131.832 82.1193C135.478 85.8598 138.153 90.0739 139.858 94.7614C141.61 99.4489 142.509 104.562 142.557 110.102C142.509 119.667 140.118 127.763 135.384 134.392C130.649 141.021 123.878 146.063 115.071 149.52C106.312 152.976 95.7765 154.705 83.4659 154.705C70.8239 154.705 59.7917 152.834 50.3693 149.094C40.9943 145.353 33.7027 139.6 28.4943 131.835C23.3333 124.023 20.7292 114.032 20.6818 101.864H58.1818C58.4186 106.314 59.5313 110.055 61.5199 113.085C63.5085 116.116 66.3021 118.412 69.9006 119.974C73.5464 121.537 77.8788 122.318 82.8977 122.318C87.1117 122.318 90.6392 121.797 93.4801 120.756C96.321 119.714 98.4754 118.27 99.9432 116.423C101.411 114.577 102.169 112.47 102.216 110.102C102.169 107.877 101.435 105.936 100.014 104.278C98.6411 102.574 96.3684 101.059 93.196 99.733C90.0237 98.3598 85.7386 97.0814 80.3409 95.8977L65.8523 92.7727C52.9735 89.9792 42.8172 85.3153 35.3835 78.7812C27.9972 72.1998 24.3277 63.2273 24.375 51.8636C24.3277 42.6307 26.7898 34.5578 31.7614 27.6449C36.7803 20.6847 43.7169 15.2633 52.571 11.3807C61.4725 7.4981 71.6761 5.55681 83.1818 5.55681C94.9242 5.55681 105.08 7.52178 113.651 11.4517C122.221 15.3816 128.826 20.9214 133.466 28.071C138.153 35.1733 140.521 43.483 140.568 53H102.784ZM145.578 153V7.54545H208.362C219.158 7.54545 228.604 9.67613 236.7 13.9375C244.797 18.1989 251.094 24.1884 255.592 31.9062C260.09 39.6241 262.339 48.6439 262.339 58.9659C262.339 69.3826 260.019 78.4025 255.379 86.0256C250.786 93.6487 244.323 99.5199 235.99 103.639C227.704 107.759 218.021 109.818 206.942 109.818H169.442V79.1364H198.987C203.627 79.1364 207.581 78.3314 210.848 76.7216C214.162 75.0644 216.696 72.7206 218.447 69.6903C220.247 66.66 221.146 63.0852 221.146 58.9659C221.146 54.7992 220.247 51.2481 218.447 48.3125C216.696 45.3295 214.162 43.0568 210.848 41.4943C207.581 39.8845 203.627 39.0795 198.987 39.0795H185.067V153H145.578ZM264.828 153V7.54545H304.317V121.182H363.124V153H264.828ZM345.726 39.3636V7.54545H472.146V39.3636H428.396V153H389.476V39.3636H345.726Z" fill="black"/>
</mask>
<g mask="url(#mask1_1_19)">
<path d="M490.705 -5.37194L18.009 156.337L18.1164 160.645L502.36 164.39L490.705 -5.37194Z" fill="black" stroke="black"/>
</g>
</g>
<defs>
<clipPath id="clip0_1_19">
<rect width="475" height="153" fill="white"/>
</clipPath>
</defs>
</svg>
