<svg width="71" height="26" viewBox="0 0 71 26" fill="none" xmlns="http://www.w3.org/2000/svg">
<mask id="mask0_11_88" style="mask-type:alpha" maskUnits="userSpaceOnUse" x="4" y="1" width="61" height="21">
<path d="M15.6036 7.86801C15.5532 7.23815 15.317 6.74686 14.895 6.39413C14.4793 6.04141 13.8463 5.86505 12.996 5.86505C12.4543 5.86505 12.0102 5.93119 11.6638 6.06346C11.3237 6.18943 11.0718 6.36264 10.908 6.58309C10.7442 6.80354 10.6592 7.05549 10.6529 7.33892C10.6403 7.57197 10.6812 7.78298 10.7757 7.97193C10.8765 8.15459 11.034 8.32151 11.2481 8.47267C11.4623 8.61754 11.7363 8.74981 12.0701 8.86948C12.4039 8.98916 12.8007 9.09623 13.2605 9.19071L14.8478 9.53084C15.9185 9.75759 16.835 10.0568 17.5971 10.4284C18.3592 10.8 18.9828 11.2378 19.4678 11.7416C19.9528 12.2392 20.3087 12.7998 20.5354 13.4234C20.7685 14.0469 20.8881 14.7272 20.8944 15.4641C20.8881 16.7364 20.57 17.8135 19.9402 18.6953C19.3103 19.5771 18.4096 20.2479 17.2381 20.7077C16.0728 21.1675 14.6714 21.3974 13.0338 21.3974C11.352 21.3974 9.88447 21.1486 8.63105 20.651C7.38392 20.1534 6.41394 19.3881 5.72109 18.3552C5.03455 17.3159 4.68812 15.9869 4.68182 14.3682H9.67032C9.70181 14.9602 9.84983 15.4578 10.1144 15.8609C10.3789 16.264 10.7505 16.5695 11.2292 16.7774C11.7142 16.9852 12.2905 17.0892 12.9582 17.0892C13.5188 17.0892 13.988 17.0199 14.3659 16.8813C14.7438 16.7427 15.0304 16.5506 15.2257 16.305C15.4209 16.0593 15.5217 15.779 15.528 15.4641C15.5217 15.1681 15.4241 14.9098 15.2351 14.6894C15.0525 14.4626 14.7501 14.2611 14.3281 14.0847C13.9061 13.9021 13.3361 13.732 12.6181 13.5745L10.6907 13.1588C8.97747 12.7872 7.62642 12.1668 6.63754 11.2976C5.65496 10.4221 5.16682 9.2285 5.17311 7.71684C5.16682 6.48861 5.49434 5.4147 6.1557 4.49511C6.82335 3.56921 7.74609 2.84802 8.92393 2.33154C10.1081 1.81505 11.4654 1.55681 12.996 1.55681C14.558 1.55681 15.9091 1.8182 17.0491 2.34098C18.1892 2.86377 19.0678 3.6007 19.6851 4.55179C20.3087 5.49658 20.6236 6.60199 20.6299 7.86801H15.6036Z" fill="black"/>
<path d="M21.2963 21.1707V1.82135H29.6483C31.0844 1.82135 32.3409 2.10479 33.418 2.67166C34.4951 3.23854 35.3328 4.03531 35.9311 5.06198C36.5295 6.08865 36.8287 7.28854 36.8287 8.66163C36.8287 10.0473 36.5201 11.2472 35.9028 12.2613C35.2918 13.2754 34.4321 14.0564 33.3235 14.6044C32.2213 15.1523 30.9332 15.4263 29.4593 15.4263H24.4708V11.3448H28.4012C29.0184 11.3448 29.5444 11.2378 29.979 11.0236C30.4199 10.8032 30.7568 10.4914 30.9899 10.0883C31.2292 9.68515 31.3489 9.20961 31.3489 8.66163C31.3489 8.10735 31.2292 7.63496 30.9899 7.24445C30.7568 6.84763 30.4199 6.5453 29.979 6.33745C29.5444 6.12329 29.0184 6.01622 28.4012 6.01622H26.5494V21.1707H21.2963Z" fill="black"/>
<path d="M37.1597 21.1707V1.82135H42.4128V16.938H50.2356V21.1707H37.1597Z" fill="black"/>
<path d="M47.9213 6.05401V1.82135H64.7385V6.05401H58.9186V21.1707H53.7412V6.05401H47.9213Z" fill="black"/>
</mask>
<g mask="url(#mask0_11_88)">
<path d="M4.02464 20.9636L67.4219 1.02458V0.451258L3.03714 -1.65093L4.02464 20.9636Z" fill="white" stroke="white"/>
</g>
<mask id="mask1_11_88" style="mask-type:alpha" maskUnits="userSpaceOnUse" x="6" y="3" width="61" height="20">
<path d="M17.8651 9.40011C17.8147 8.77025 17.5785 8.27896 17.1565 7.92624C16.7408 7.57352 16.1078 7.39716 15.2575 7.39716C14.7158 7.39716 14.2717 7.46329 13.9253 7.59556C13.5852 7.72153 13.3332 7.89475 13.1695 8.1152C13.0057 8.33565 12.9207 8.58759 12.9144 8.87103C12.9018 9.10408 12.9427 9.31508 13.0372 9.50404C13.138 9.6867 13.2954 9.85361 13.5096 10.0048C13.7237 10.1496 13.9977 10.2819 14.3316 10.4016C14.6654 10.5213 15.0622 10.6283 15.522 10.7228L17.1092 11.0629C18.18 11.2897 19.0964 11.5889 19.8586 11.9605C20.6207 12.3321 21.2443 12.7699 21.7293 13.2738C22.2143 13.7713 22.5701 14.3319 22.7969 14.9555C23.0299 15.579 23.1496 16.2593 23.1559 16.9962C23.1496 18.2685 22.8315 19.3456 22.2017 20.2274C21.5718 21.1092 20.6711 21.78 19.4996 22.2398C18.3343 22.6996 16.9329 22.9295 15.2952 22.9295C13.6135 22.9295 12.1459 22.6807 10.8925 22.1831C9.6454 21.6855 8.67541 20.9203 7.98257 19.8873C7.29602 18.848 6.9496 17.519 6.9433 15.9003H11.9318C11.9633 16.4923 12.1113 16.9899 12.3758 17.393C12.6404 17.7961 13.012 18.1016 13.4907 18.3095C13.9757 18.5173 14.552 18.6213 15.2197 18.6213C15.7802 18.6213 16.2495 18.552 16.6274 18.4134C17.0053 18.2748 17.2919 18.0827 17.4872 17.8371C17.6824 17.5914 17.7832 17.3112 17.7895 16.9962C17.7832 16.7002 17.6856 16.4419 17.4966 16.2215C17.3139 15.9947 17.0116 15.7932 16.5896 15.6168C16.1676 15.4342 15.5976 15.2641 14.8795 15.1066L12.9522 14.6909C11.2389 14.3193 9.88789 13.6989 8.89901 12.8297C7.91643 11.9542 7.42829 10.7606 7.43459 9.24895C7.42829 8.02072 7.75582 6.94681 8.41717 6.02721C9.08482 5.10132 10.0076 4.38013 11.1854 3.86364C12.3695 3.34716 13.7269 3.08891 15.2575 3.08891C16.8195 3.08891 18.1706 3.3503 19.3106 3.87309C20.4506 4.39587 21.3293 5.13281 21.9466 6.0839C22.5701 7.02869 22.8851 8.13409 22.8914 9.40011H17.8651Z" fill="black"/>
<path d="M23.5578 22.7028V3.35345H31.9098C33.3458 3.35345 34.6024 3.63689 35.6795 4.20377C36.7565 4.77064 37.5942 5.56741 38.1926 6.59409C38.791 7.62076 39.0902 8.82064 39.0902 10.1937C39.0902 11.5794 38.7815 12.7793 38.1643 13.7934C37.5533 14.8075 36.6935 15.5885 35.585 16.1365C34.4827 16.6844 33.1947 16.9584 31.7208 16.9584H26.7323V12.8769H30.6626C31.2799 12.8769 31.8058 12.7699 32.2404 12.5557C32.6813 12.3353 33.0183 12.0235 33.2514 11.6204C33.4907 11.2173 33.6104 10.7417 33.6104 10.1937C33.6104 9.63946 33.4907 9.16706 33.2514 8.77655C33.0183 8.37974 32.6813 8.0774 32.2404 7.86955C31.8058 7.6554 31.2799 7.54832 30.6626 7.54832H28.8108V22.7028H23.5578Z" fill="black"/>
<path d="M39.4212 22.7028V3.35345H44.6742V18.4701H52.4971V22.7028H39.4212Z" fill="black"/>
<path d="M50.1828 7.58611V3.35345H67V7.58611H61.1801V22.7028H56.0027V7.58611H50.1828Z" fill="black"/>
</mask>
<g mask="url(#mask1_11_88)">
<path d="M69.3607 1.36203L6.6724 23.4291L6.69175 24.0021L71.1108 23.9303L69.3607 1.36203Z" fill="white" stroke="white"/>
</g>
</svg>
