<svg xmlns="http://www.w3.org/2000/svg" fill="none" viewBox="0 0 475 155">
  <mask id="a" width="452" height="150" x="4" y="0" maskUnits="userSpaceOnUse"
    style="mask-type:alpha">
    <path fill="#000"
      d="M86.1023 47.4432c-.3788-4.7349-2.1544-8.428-5.3267-11.0796-3.125-2.6515-7.8836-3.9772-14.2756-3.9772-4.072 0-7.41.4971-10.0142 1.4914-2.5568.947-4.4508 2.2491-5.6818 3.9063-1.2311 1.6572-1.8703 3.5511-1.9176 5.6818-.0947 1.7519.213 3.3381.9233 4.7585.7575 1.3731 1.9412 2.6279 3.5511 3.7642 1.6098 1.0891 3.6695 2.0834 6.179 2.983 2.5094.8996 5.4924 1.7045 8.9488 2.4148l11.9319 2.5568c8.0492 1.7045 14.9384 3.9536 20.6675 6.7471 5.729 2.7936 10.417 6.0843 14.063 9.8722 3.645 3.7405 6.321 7.9546 8.025 12.6421 1.752 4.6875 2.652 9.8011 2.699 15.3404-.047 9.565-2.438 17.661-7.173 24.29-4.735 6.629-11.506 11.672-20.3128 15.128-8.7595 3.457-19.2945 5.185-31.6051 5.185-12.6421 0-23.6743-1.871-33.0966-5.611-9.375-3.741-16.6667-9.493-21.875-17.259C6.65152 118.466 4.04735 108.475 4 96.3068h37.5c.2367 4.4512 1.3494 8.1912 3.3381 11.2212 1.9886 3.031 4.7822 5.327 8.3807 6.89 3.6458 1.562 7.9782 2.343 12.9971 2.343 4.214 0 7.7415-.52 10.5824-1.562 2.8409-1.042 4.9953-2.486 6.4631-4.333 1.4678-1.846 2.2253-3.953 2.2727-6.321-.0474-2.225-.7813-4.166-2.2017-5.8234-1.3731-1.7046-3.6458-3.2197-6.8182-4.5455-3.1723-1.3731-7.4574-2.6515-12.8551-3.8352l-14.4886-3.125c-12.8788-2.7936-23.0351-7.4574-30.4688-13.9915C11.3153 66.643 7.64583 57.6705 7.69318 46.3068c-.04735-9.2329 2.41482-17.3059 7.38632-24.2187 5.019-6.9603 11.9555-12.38166 20.8097-16.26424C44.7907 1.94129 54.9943 0 66.5 0c11.7424 0 21.8987 1.96496 30.4688 5.89489 8.5702 3.92992 15.1752 9.46971 19.8152 16.61931 4.688 7.1023 7.055 15.4119 7.102 24.929H86.1023ZM128.896 147.443V1.98864h62.784c10.796 0 20.242 2.13068 28.338 6.39205 8.097 4.26131 14.394 10.25091 18.893 17.96871 4.498 7.7178 6.747 16.7377 6.747 27.0597 0 10.4167-2.32 19.4365-6.961 27.0597-4.592 7.6231-11.055 13.4943-19.389 17.6136-8.286 4.1196-17.969 6.1786-29.048 6.1786h-37.5V73.5796h29.545c4.641 0 8.594-.805 11.861-2.4148 3.315-1.6572 5.848-4.001 7.6-7.0313 1.799-3.0303 2.698-6.6051 2.698-10.7244 0-4.1667-.899-7.7178-2.698-10.6534-1.752-2.983-4.285-5.2557-7.6-6.8182-3.267-1.6098-7.22-2.4148-11.861-2.4148h-13.92V147.443h-39.489ZM248.146 147.443V1.98864h39.489V115.625h58.807v31.818h-98.296ZM329.044 33.8068V1.98864h126.421V33.8068h-43.75V147.443h-38.921V33.8068h-43.75Z" />
  </mask>
  <g mask="url(#a)">
    <path fill="#000" stroke="#000"
      d="M-1.25851 146.443 475.318-3.44414V-7.754L-8.68182-23.5568l7.42331 169.9998Z" />
  </g>
  <mask id="b" width="452" height="150" x="21" y="3" maskUnits="userSpaceOnUse"
    style="mask-type:alpha">
    <path fill="#000"
      d="M103.102 50.4432c-.379-4.7349-2.154-8.428-5.3264-11.0796-3.125-2.6515-7.8836-3.9772-14.2756-3.9772-4.072 0-7.41.4971-10.0142 1.4914-2.5568.947-4.4508 2.2491-5.6818 3.9063-1.2311 1.6572-1.8703 3.5511-1.9176 5.6818-.0947 1.7519.213 3.3381.9233 4.7585.7575 1.3731 1.9412 2.6279 3.5511 3.7642 1.6098 1.0891 3.6695 2.0834 6.179 2.983 2.5094.8996 5.4924 1.7045 8.9488 2.4148l11.9319 2.5568c8.0495 1.7045 14.9385 3.9536 20.6675 6.7471 5.729 2.7936 10.417 6.0843 14.063 9.8722 3.645 3.7405 6.321 7.9546 8.025 12.6421 1.752 4.6875 2.652 9.8014 2.699 15.3404-.047 9.565-2.438 17.661-7.173 24.29-4.735 6.629-11.506 11.672-20.313 15.128-8.759 3.457-19.2943 5.185-31.6049 5.185-12.6421 0-23.6743-1.871-33.0966-5.611-9.375-3.741-16.6667-9.493-21.875-17.259-5.161-7.812-7.7652-17.803-7.8125-29.9712h37.5c.2367 4.4512 1.3494 8.1912 3.3381 11.2212 1.9886 3.031 4.7822 5.327 8.3807 6.89 3.6458 1.562 7.9782 2.343 12.9971 2.343 4.214 0 7.7415-.52 10.5824-1.562 2.8409-1.042 4.9953-2.486 6.4627-4.333 1.468-1.846 2.226-3.953 2.273-6.321-.047-2.225-.781-4.166-2.202-5.823-1.3727-1.705-3.6454-3.2201-6.8178-4.5459-3.1723-1.3731-7.4574-2.6515-12.8551-3.8352l-14.4886-3.125c-12.8788-2.7936-23.0351-7.4574-30.4688-13.9915-7.3864-6.5814-11.0559-15.5539-11.0085-26.9176-.0474-9.2329 2.4148-17.3059 7.3863-24.2187 5.019-6.9603 11.9555-12.3817 20.8097-16.26424C61.7907 4.94129 71.9943 3 83.5 3c11.7424 0 21.899 1.96496 30.469 5.89489 8.57 3.92991 15.175 9.46971 19.815 16.61931 4.688 7.1023 7.055 15.4119 7.102 24.929h-37.784ZM145.896 150.443V4.98864h62.784c10.796 0 20.242 2.13068 28.338 6.39206 8.097 4.2613 14.394 10.2509 18.893 17.9687 4.498 7.7178 6.747 16.7377 6.747 27.0597 0 10.4167-2.32 19.4365-6.961 27.0597-4.592 7.6231-11.055 13.4943-19.389 17.6132-8.286 4.12-17.969 6.179-29.048 6.179h-37.5V76.5796h29.545c4.641 0 8.594-.805 11.861-2.4148 3.315-1.6572 5.848-4.001 7.6-7.0313 1.799-3.0303 2.698-6.6051 2.698-10.7244 0-4.1667-.899-7.7178-2.698-10.6534-1.752-2.983-4.285-5.2557-7.6-6.8182-3.267-1.6098-7.22-2.4148-11.861-2.4148h-13.92V150.443h-39.489ZM265.146 150.443V4.98864h39.489V118.625h58.807v31.818h-98.296ZM346.044 36.8068V4.98864h126.421V36.8068h-43.75V150.443h-38.921V36.8068h-43.75Z" />
  </mask>
  <g mask="url(#b)">
    <path fill="#000" stroke="#000"
      d="M492.895.443176 16.3182 150.331v4.309l483.9998 15.803L492.895.443176Z" />
  </g>
</svg>